<svg width="173" height="324" viewBox="0 0 173 324" fill="none" xmlns="http://www.w3.org/2000/svg">
<path d="M40.9978 0.00129612C49.0278 0.0652662 56.8592 2.4948 63.5048 6.98369C70.1504 11.4726 75.3128 17.8199 78.3414 25.2257C81.3699 32.6315 82.1291 40.7643 80.5232 48.599C78.9173 56.4337 75.0182 63.6198 69.3173 69.2514C63.6164 74.8831 56.3689 78.7082 48.4883 80.2449C40.6076 81.7815 32.4465 80.9607 25.0335 77.8861C17.6205 74.8115 11.2875 69.6206 6.83259 62.9676C2.37767 56.3146 0.000256995 48.4974 2.08265e-08 40.5011C-0.000171779 35.1552 1.06254 29.8622 3.12683 24.9273C5.19113 19.9924 8.21616 15.5133 12.0275 11.7483C15.8388 7.98324 20.361 5.00682 25.3332 2.99067C30.3054 0.974519 35.6293 -0.041471 40.9978 0.00129612ZM2.08265e-08 162.001C2.08265e-08 140.518 8.57023 119.916 23.8253 104.725C39.0804 89.5348 59.7708 81.001 81.3448 81.001V243C81.3448 264.483 72.7745 285.085 57.5194 300.276C42.2643 315.466 21.574 324 2.08265e-08 324V162.001Z" fill="white"/>
<path d="M91.1068 81.0011H172.452C172.452 102.484 163.881 123.086 148.626 138.277C133.371 153.467 112.681 162.001 91.1068 162.001V81.0011ZM172.452 162.001V243C150.878 243 130.187 234.467 114.932 219.276C99.6771 204.086 91.1068 183.483 91.1068 162.001H172.452Z" fill="white"/>
</svg>
