<svg width="312" height="587" viewBox="0 0 312 587" fill="none" xmlns="http://www.w3.org/2000/svg">
<path d="M74.1736 0.00234496C88.7017 0.11808 102.87 4.51362 114.894 12.635C126.917 20.7563 136.257 32.24 141.736 45.6386C147.215 59.0372 148.589 73.7511 145.683 87.9258C142.778 102.101 135.724 115.102 125.41 125.29C115.095 135.479 101.983 142.4 87.7255 145.18C73.4677 147.96 58.7025 146.475 45.2909 140.912C31.8793 135.35 20.4215 125.958 12.3616 113.922C4.3017 101.885 0.000464959 87.742 3.76803e-08 73.2751C-0.000310785 63.6032 1.92235 54.027 5.65709 45.0988C9.39184 36.1705 14.8648 28.0668 21.7602 21.2551C28.6557 14.4434 36.8372 9.05839 45.833 5.41075C54.8288 1.76311 64.4608 -0.0750297 74.1736 0.00234496ZM3.76803e-08 293.093C3.76803e-08 254.227 15.5053 216.953 43.105 189.47C70.7047 161.987 108.138 146.548 147.17 146.548V439.639C147.17 478.505 131.664 515.779 104.065 543.262C76.4651 570.745 39.0319 586.184 3.76803e-08 586.184V293.093Z" fill="#0A242B"/>
<path d="M164.83 146.548H312C312 185.414 296.495 222.688 268.895 250.171C241.295 277.654 203.862 293.093 164.83 293.093V146.548ZM312 293.093V439.639C272.968 439.639 235.535 424.199 207.935 396.717C180.336 369.234 164.83 331.959 164.83 293.093H312Z" fill="#0A242B"/>
<path d="M74.1736 0.00234496C88.7017 0.11808 102.87 4.51362 114.894 12.635C126.917 20.7563 136.257 32.24 141.736 45.6386C147.215 59.0372 148.589 73.7511 145.683 87.9258C142.778 102.101 135.724 115.102 125.41 125.29C115.095 135.479 101.983 142.4 87.7255 145.18C73.4677 147.96 58.7025 146.475 45.2909 140.912C31.8793 135.35 20.4215 125.958 12.3616 113.922C4.3017 101.885 0.000464959 87.742 3.76803e-08 73.2751C-0.000310785 63.6032 1.92235 54.027 5.65709 45.0988C9.39184 36.1705 14.8648 28.0668 21.7602 21.2551C28.6557 14.4434 36.8372 9.05839 45.833 5.41075C54.8288 1.76311 64.4608 -0.0750297 74.1736 0.00234496ZM3.76803e-08 293.093C3.76803e-08 254.227 15.5053 216.953 43.105 189.47C70.7047 161.987 108.138 146.548 147.17 146.548V439.639C147.17 478.505 131.664 515.779 104.065 543.262C76.4651 570.745 39.0319 586.184 3.76803e-08 586.184V293.093Z" fill="#0A242B"/>
<path d="M164.83 146.548H312C312 185.414 296.495 222.688 268.895 250.171C241.295 277.654 203.862 293.093 164.83 293.093V146.548ZM312 293.093V439.639C272.968 439.639 235.535 424.199 207.935 396.717C180.336 369.234 164.83 331.959 164.83 293.093H312Z" fill="#0A242B"/>
</svg>
