<svg width="317" height="596" viewBox="0 0 317 596" fill="none" xmlns="http://www.w3.org/2000/svg">
<g style="mix-blend-mode:overlay">
<path d="M75.3623 0.00238254C90.1232 0.119973 104.519 4.58596 116.735 12.8375C128.951 21.0889 138.44 32.7566 144.007 46.37C149.575 59.9833 150.97 74.933 148.018 89.3349C145.066 103.737 137.899 116.946 127.419 127.298C116.94 137.65 103.618 144.682 89.1313 147.506C74.6451 150.331 59.6433 148.822 46.0167 143.171C32.3902 137.519 20.7487 127.977 12.5597 115.747C4.37064 103.518 0.00047241 89.1481 3.82841e-08 74.4493C-0.000315765 64.6225 1.95316 54.8929 5.74775 45.8215C9.54235 36.7501 15.103 28.5166 22.109 21.5957C29.1149 14.6748 37.4276 9.20356 46.5676 5.49746C55.7075 1.79136 65.4939 -0.0762321 75.3623 0.00238254ZM3.82841e-08 297.79C3.82841e-08 258.301 15.7538 220.429 43.7958 192.506C71.8378 164.583 109.871 148.896 149.528 148.896V446.684C149.528 486.173 133.774 524.045 105.732 551.968C77.6905 579.891 39.6574 595.578 3.82841e-08 595.578V297.79Z" fill="white"/>
<path d="M167.472 148.896H317C317 188.385 301.246 226.257 273.204 254.18C245.162 282.103 207.129 297.79 167.472 297.79V148.896ZM317 297.79V446.684C277.343 446.684 239.309 430.997 211.267 403.074C183.225 375.151 167.472 337.279 167.472 297.79H317Z" fill="white"/>
</g>
</svg>
