<svg width="65" height="42" viewBox="0 0 65 42" fill="none" xmlns="http://www.w3.org/2000/svg">
<path d="M18.9069 0.1875C20.7797 0.1875 22.5103 0.329688 24.0988 0.75625C25.6831 1.04063 26.9872 1.63375 28.145 2.34469C29.3028 3.05562 30.1641 4.07531 30.7491 5.37937C31.3178 6.67937 31.6266 8.26781 31.6266 9.99844C31.6266 12.0134 31.1959 13.7441 30.1803 15.0441C29.3069 16.3441 27.8809 17.5059 26.13 18.3631C28.5919 19.0781 30.4647 20.3781 31.6063 22.1087C32.7478 23.8394 33.4791 25.9966 33.4791 28.4584C33.4791 30.4734 33.0525 32.2041 32.3212 33.6503C31.5944 35.1078 30.4993 36.35 29.1444 37.2537C27.8444 38.1272 26.2559 38.8381 24.5253 39.2687C22.8303 39.7176 21.0867 39.9577 19.3334 39.9837L0 40.0122V0.1875H18.9069ZM17.7491 16.3481C19.3334 16.3481 20.6334 15.9216 21.6369 15.1903C22.6363 14.4591 23.0791 13.1713 23.0791 11.5869C23.0791 10.7094 22.9369 9.85625 22.6525 9.28344C22.3421 8.7047 21.896 8.20984 21.3525 7.84125C20.764 7.51807 20.1338 7.27748 19.4797 7.12625C18.7647 6.98406 18.0334 6.98406 17.1763 6.98406H8.81563V16.3684C8.81563 16.3481 17.7491 16.3481 17.7491 16.3481ZM18.1756 33.3822C19.0491 33.3822 19.9062 33.24 20.6375 33.0978C21.3525 32.9556 22.0838 32.6672 22.6525 32.2203C23.2213 31.7734 23.6681 31.3469 24.0988 30.6359C24.3831 29.9209 24.6675 29.0475 24.6675 28.0319C24.6675 26.0169 24.0987 24.5706 22.9369 23.555C21.7791 22.6816 20.1906 22.255 18.3178 22.255H8.81563V33.3619H18.1797L18.1756 33.3822ZM46.0362 33.24C47.1954 34.3965 48.926 34.9733 51.2281 34.9706C52.8125 34.9706 54.2588 34.54 55.4206 33.8088C56.5744 32.9421 57.2921 32.0754 57.5737 31.2087H64.6425C63.4806 34.6659 61.75 37.1278 59.4506 38.7163C57.1512 40.1584 54.4009 41.0156 51.0819 41.0156C48.9592 41.0285 46.8536 40.6355 44.8784 39.8578C43.0978 39.2008 41.5099 38.1087 40.2594 36.6809C38.9221 35.3529 37.9292 33.7185 37.3669 31.9197C36.6559 30.0469 36.3512 28.0319 36.3512 25.7122C36.3512 23.555 36.6356 21.5197 37.3669 19.6469C38.0981 17.7781 39.0975 16.1856 40.4016 14.7434C41.7016 13.4434 43.29 12.2816 45.0206 11.5666C46.9498 10.7965 49.0087 10.4035 51.0859 10.4087C53.5478 10.4087 55.705 10.8353 57.5778 11.8509C59.4466 12.8666 60.8969 14.0122 62.0547 15.7428C63.2125 17.3272 64.0697 19.2 64.6588 21.2191C64.9431 23.2341 65.0853 25.2653 64.9431 27.5687H44.0213C44.0213 29.925 44.8744 32.0781 46.0362 33.24ZM55.1362 18.0787C54.1206 17.0631 52.5281 16.4903 50.6553 16.4903C49.3553 16.4903 48.3559 16.7747 47.4825 17.2053C46.6091 17.6359 46.0363 18.2209 45.4675 18.7897C44.9371 19.3477 44.5837 20.0502 44.4519 20.8088C44.3056 21.5197 44.1675 22.1088 44.1675 22.6775H57.1512C56.8669 20.5406 56.1397 19.0944 55.1362 18.0787ZM42.4328 2.93375H58.5934V6.82156H42.4328V2.93375Z" fill="white"/>
</svg>
