<svg width="65" height="65" viewBox="0 0 65 65" fill="none" xmlns="http://www.w3.org/2000/svg">
<path fill-rule="evenodd" clip-rule="evenodd" d="M56.875 18.2812V56.875C56.875 59.0299 56.019 61.0965 54.4952 62.6202C52.9715 64.144 50.9049 65 48.75 65H44.6875V60.9375H48.75C49.8274 60.9375 50.8608 60.5095 51.6226 59.7476C52.3845 58.9858 52.8125 57.9524 52.8125 56.875V18.2812H44.6875C43.0713 18.2812 41.5214 17.6392 40.3786 16.4964C39.2358 15.3536 38.5938 13.8037 38.5938 12.1875V4.0625H16.25C15.1726 4.0625 14.1392 4.49051 13.3774 5.25238C12.6155 6.01425 12.1875 7.04756 12.1875 8.125V44.6875H8.125V8.125C8.125 5.97012 8.98102 3.90349 10.5048 2.37976C12.0285 0.856024 14.0951 0 16.25 0L38.5938 0L56.875 18.2812ZM6.5 48.1406H0V64.3866H3.21344V58.9347H6.47562C7.64021 58.9347 8.63146 58.7004 9.44937 58.2319C10.2754 57.7579 10.9024 57.116 11.3303 56.3062C11.7763 55.4591 12.0013 54.5131 11.9844 53.5559C11.9844 52.5403 11.7704 51.6235 11.3425 50.8056C10.9138 49.9971 10.2662 49.3255 9.47375 48.8678C8.66125 48.3803 7.67 48.1379 6.5 48.1406ZM8.71406 53.5559C8.72786 54.0911 8.60924 54.6214 8.36875 55.0997C8.15311 55.5165 7.81593 55.8579 7.40188 56.0787C6.92862 56.3118 6.40576 56.4261 5.87844 56.4119H3.20125V50.7H5.8825C6.76812 50.7 7.46146 50.9451 7.9625 51.4353C8.46354 51.9309 8.71406 52.6378 8.71406 53.5559ZM13.6581 48.1406V64.3866H19.5894C21.2198 64.3866 22.5713 64.0656 23.6438 63.4238C24.7291 62.7744 25.5766 61.793 26.0609 60.6247C26.5918 59.4059 26.8572 57.938 26.8572 56.2209C26.8572 54.5147 26.5918 53.059 26.0609 51.8537C25.5813 50.6995 24.7422 49.7307 23.6681 49.0912C22.5956 48.4575 21.2347 48.1406 19.5853 48.1406H13.6581ZM16.8716 50.7609H19.1588C20.1635 50.7609 20.9882 50.9668 21.6328 51.3784C22.3012 51.8192 22.8064 52.4671 23.0709 53.2228C23.3905 54.0407 23.5503 55.0604 23.5503 56.2819C23.5629 57.0921 23.47 57.9006 23.2741 58.6869C23.1339 59.3086 22.8624 59.8931 22.4778 60.4013C22.1243 60.8568 21.656 61.2102 21.1209 61.425C20.4939 61.6594 19.828 61.7724 19.1588 61.7581H16.8716V50.7609ZM32.0775 57.9231V64.3866H28.8681V48.1406H39.2194V50.7934H32.0775V55.3312H38.6019V57.9231H32.0775Z" fill="white"/>
</svg>
