<svg width="65" height="65" viewBox="0 0 65 65" fill="none" xmlns="http://www.w3.org/2000/svg">
<path d="M55.2541 9.4496C52.2747 6.4413 48.726 4.05641 44.8152 2.43404C40.9043 0.811676 36.7096 -0.0156846 32.4756 0.000225164C14.7347 0.000225164 0.27625 14.4546 0.26 32.1996C0.26 37.883 1.74688 43.4121 4.55406 48.3074L0 65.0002L17.0787 60.5233C21.8014 63.0999 27.0959 64.448 32.4756 64.4437H32.4919C50.2369 64.4437 64.6913 49.9893 64.7075 32.228C64.7111 27.9952 63.8773 23.8034 62.2542 19.8941C60.6311 15.9847 58.2547 12.4351 55.2541 9.4496ZM32.4756 58.9918C27.6785 58.988 22.9703 57.6973 18.8419 55.2543L17.8669 54.6693L7.735 57.3262L10.4406 47.4421L9.80688 46.4224C7.12484 42.1581 5.70638 37.221 5.71594 32.1833C5.71594 17.4527 17.7288 5.43585 32.4919 5.43585C36.0089 5.42954 39.4925 6.11946 42.7416 7.46585C45.9908 8.81223 48.9413 10.7884 51.4231 13.2805C53.913 15.7633 55.887 18.7143 57.2313 21.9634C58.5755 25.2125 59.2635 28.6956 59.2556 32.2118C59.2394 46.9952 47.2266 58.9918 32.4756 58.9918ZM47.1616 38.9474C46.3613 38.5452 42.4084 36.5993 41.665 36.323C40.9256 36.059 40.3853 35.9208 39.8572 36.7252C39.3169 37.5255 37.7731 39.3496 37.31 39.8737C36.8469 40.414 36.3675 40.4749 35.5631 40.0768C34.7628 39.6705 32.1669 38.8255 29.0956 36.0752C26.6988 33.9424 25.0941 31.3018 24.6147 30.5015C24.1516 29.6971 24.57 29.2665 24.9722 28.8643C25.3256 28.5068 25.7725 27.9218 26.1747 27.4587C26.5809 26.9955 26.715 26.6543 26.9791 26.118C27.2431 25.5737 27.1172 25.1105 26.9181 24.7083C26.715 24.3062 25.1103 20.3371 24.4319 18.7365C23.7819 17.1562 23.1197 17.3755 22.6241 17.3552C22.1609 17.3268 21.6206 17.3268 21.0803 17.3268C20.6723 17.3372 20.2709 17.4317 19.9011 17.6043C19.5313 17.777 19.2011 18.0241 18.9312 18.3302C18.1919 19.1346 16.1241 21.0805 16.1241 25.0496C16.1241 29.0187 19.0084 32.8334 19.4147 33.3737C19.8128 33.914 25.0778 42.0349 33.1581 45.5287C35.0675 46.3615 36.5706 46.853 37.7447 47.2268C39.6744 47.8443 41.4172 47.7508 42.8066 47.5518C44.3503 47.3162 47.5638 45.6018 48.2422 43.7209C48.9084 41.8359 48.9084 40.2271 48.7053 39.8899C48.5063 39.5487 47.9659 39.3496 47.1616 38.9474Z" fill="white"/>
</svg>
